<mxfile host="app.diagrams.net" modified="2023-05-15T14:25:09.895Z" agent="Mozilla/5.0 (Windows NT 10.0; Win64; x64) AppleWebKit/537.36 (KHTML, like Gecko) Chrome/110.0.0.0 Safari/537.36" version="21.3.2" etag="NJ4M1Jn7soO38E5hVbUk" type="github">
  <diagram name="‫עמוד-1‬" id="41IMKoSkv_quvoTIif7E">
    <mxGraphModel>
      <root>
        <mxCell id="0" />
        <mxCell id="1" parent="0" />
      </root>
    </mxGraphModel>
  </diagram>
</mxfile>
